<svg width="94" height="94" viewBox="0 0 94 94" fill="none" xmlns="http://www.w3.org/2000/svg">
<rect x="3" y="3" width="88" height="88" rx="44" fill="white" stroke="#2D7E4A" stroke-width="6"/>
<path d="M33.6365 50.9518C33.2133 51.3653 32.7225 51.5533 32.164 51.5157C31.6054 51.4781 31.173 51.2338 30.8668 50.7827C29.3282 48.6025 28.1449 46.2246 27.3171 43.6489C26.4893 41.0733 26.0761 38.3578 26.0777 35.5025C26.0777 34.4499 26.1354 33.4162 26.2508 32.4013C26.3662 31.3864 26.5393 30.3903 26.7701 29.4129L23.9427 32.1758C23.5965 32.5141 23.1926 32.6832 22.731 32.6832C22.2694 32.6832 21.8655 32.5141 21.5193 32.1758C21.1731 31.8375 21 31.4428 21 30.9917C21 30.5406 21.1731 30.1459 21.5193 29.8076L26.7701 24.6766C27.0009 24.4511 27.2509 24.2819 27.5202 24.1692C27.7895 24.0564 28.078 24 28.3857 24C28.6934 24 28.982 24.0564 29.2512 24.1692C29.5205 24.2819 29.7705 24.4511 30.0013 24.6766L35.2521 29.8076C35.5983 30.1459 35.7714 30.5406 35.7714 30.9917C35.7714 31.4428 35.5983 31.8375 35.2521 32.1758C34.9059 32.5141 34.502 32.6832 34.0404 32.6832C33.5788 32.6832 33.1749 32.5141 32.8287 32.1758L30.2898 29.6948C30.059 30.6346 29.8759 31.5931 29.7405 32.5705C29.6051 33.5478 29.5382 34.5251 29.5397 35.5025C29.5397 37.9834 29.9144 40.3515 30.6637 42.6069C31.4131 44.8623 32.4617 46.9485 33.8096 48.8656C34.0404 49.1663 34.1366 49.5234 34.0981 49.9369C34.0596 50.3504 33.9058 50.6887 33.6365 50.9518ZM53.1971 69.7279L41.1953 64.8788C40.6568 64.6533 40.2436 64.2496 39.9559 63.6677C39.6681 63.0858 39.5812 62.5122 39.6951 61.9468C39.772 61.4958 39.9936 61.1101 40.3598 60.7898C40.726 60.4696 41.1968 60.2538 41.7723 60.1425L49.3311 58.6765L39.2335 36.5174C38.8488 35.6528 38.8203 34.7883 39.1481 33.9237C39.4758 33.0591 40.0813 32.4389 40.9645 32.063C41.8492 31.6871 42.734 31.6593 43.6187 31.9795C44.5035 32.2998 45.1382 32.8915 45.5229 33.7545L51.1775 46.1591L53.0817 45.3134C53.3894 45.2006 53.7356 45.0976 54.1203 45.0044C54.505 44.9112 54.8512 44.8826 55.1589 44.9187L65.7182 45.3698C66.7183 45.4449 67.6031 45.7833 68.3724 46.3847C69.1417 46.9861 69.661 47.7379 69.9303 48.6401L72.8154 58.3946C73.1231 59.4847 73.0462 60.5372 72.5846 61.5521C72.1229 62.5671 71.3536 63.3001 70.2765 63.7511L57.2361 69.446C56.5822 69.7467 55.8898 69.9256 55.1589 69.9828C54.428 70.0399 53.7741 69.955 53.1971 69.7279Z" fill="#2D7E4A"/>
</svg>
