<svg width="39" height="44" viewBox="0 0 39 44" fill="none" xmlns="http://www.w3.org/2000/svg">
<path d="M39 18.0437C35.1663 18.0528 31.4267 16.8726 28.3093 14.6698V30.0325C28.3083 32.8778 27.4273 35.655 25.7841 37.9927C24.141 40.3304 21.814 42.1172 19.1143 43.1142C16.4147 44.1112 13.471 44.2708 10.677 43.5717C7.88294 42.8726 5.3717 41.3482 3.47904 39.2022C1.58638 37.0562 0.402516 34.391 0.0857485 31.5629C-0.231019 28.7348 0.334408 25.8786 1.70642 23.3763C3.07844 20.874 5.19165 18.8448 7.76348 17.5601C10.3353 16.2753 13.2432 15.7963 16.0983 16.187V23.9139C14.7918 23.5082 13.3888 23.5204 12.0898 23.9488C10.7908 24.3772 9.66207 25.1998 8.86488 26.2991C8.0677 27.3985 7.6428 28.7184 7.65087 30.0704C7.65894 31.4223 8.09955 32.7372 8.9098 33.8272C9.72005 34.9173 10.8585 35.7267 12.1625 36.1399C13.4666 36.5532 14.8696 36.5491 16.1712 36.1282C17.4727 35.7074 18.6063 34.8913 19.41 33.7966C20.2137 32.7019 20.6464 31.3844 20.6464 30.0325V0H28.3093C28.304 0.638798 28.3582 1.27672 28.4713 1.90572C28.7376 3.30984 29.2912 4.64559 30.0984 5.83125C30.9056 7.01691 31.9493 8.02755 33.1657 8.80137C34.8963 9.93095 36.9253 10.533 39 10.5326V18.0437Z" fill="white"/>
</svg>
